<?xml version="1.0" standalone="no"?>
<!DOCTYPE svg PUBLIC "-//W3C//DTD SVG 20010904//EN"
 "http://www.w3.org/TR/2001/REC-SVG-20010904/DTD/svg10.dtd">
<svg version="1.0" xmlns="http://www.w3.org/2000/svg"
 width="1000.000000pt" height="1000.000000pt" viewBox="0 0 1000.000000 1000.000000"
 preserveAspectRatio="xMidYMid meet">
<metadata>
Created by potrace 1.11, written by Peter Selinger 2001-2013
</metadata>
<g transform="translate(0.000000,1000.000000) scale(0.100000,-0.100000)"
fill="#000000" stroke="none">
<path d="M270 5019 l0 -4720 348 346 347 346 1 4019 c0 2211 2 4021 5 4024 2
2 159 -150 347 -338 l343 -342 1 -3334 0 -3333 348 348 349 349 0 2629 c0
1446 1 2631 3 2633 2 2 159 -152 348 -341 l345 -343 -1 -1941 c0 -1068 1
-1941 3 -1941 1 0 158 155 348 344 l345 344 2 1248 3 1249 346 -345 346 -345
-1 -552 c-1 -304 1 -553 4 -553 3 0 129 123 280 274 l275 275 1402 -1397 c771
-768 1837 -1831 2368 -2361 l965 -963 0 526 0 525 -414 413 c-388 386 -3067
3057 -6516 6497 l-1485 1480 -527 1 -528 0 0 -4721z"/>
<path d="M2406 9708 c16 -18 32 -35 36 -38 3 -3 1029 -1024 2278 -2270 1249
-1246 2662 -2653 3138 -3128 477 -474 1095 -1091 1375 -1370 l507 -507 0 525
0 525 -164 165 c-211 212 -4319 4308 -5359 5343 l-791 787 -525 0 -525 0 30
-32z"/>
<path d="M6034 8188 c856 -854 2040 -2033 2629 -2620 l1072 -1067 3 522 2 522
-1357 1353 c-747 744 -1694 1688 -2104 2097 l-745 745 -529 0 -528 0 1557
-1552z"/>
<path d="M6590 9736 c0 -7 3138 -3136 3146 -3136 2 0 4 235 4 522 l0 522
-1052 1048 -1053 1048 -522 0 c-288 0 -523 -2 -523 -4z"/>
<path d="M8690 9737 c0 -1 236 -238 525 -526 l525 -523 0 526 0 526 -525 0
c-289 0 -525 -1 -525 -3z"/>
</g>
</svg>
